<svg width="131" height="54" viewBox="0 0 131 54" fill="none" xmlns="http://www.w3.org/2000/svg">
<g filter="url(#filter0_d_772_1490)">
<path d="M30.2547 19.5494L16.4913 4.1668C15.915 3.52262 16.3722 2.5 17.2366 2.5L31 2.50001C31.5523 2.50001 32 2.94773 32 3.50001L32 18.8826C32 19.8006 30.8668 20.2335 30.2547 19.5494Z" fill="#F9BE00"/>
<rect x="2" y="2.5" width="13" height="49" rx="3" fill="white"/>
<path d="M18 42.5C18 40.8431 19.3431 39.5 21 39.5H27C28.6569 39.5 30 40.8431 30 42.5V48.5C30 50.1569 28.6569 51.5 27 51.5H21C19.3431 51.5 18 50.1569 18 48.5V42.5Z" fill="white"/>
<circle cx="24" cy="32.5" r="6" fill="white"/>
</g>
<path d="M51.0925 12.4247V15.1788H45.9445V12.4247H51.0925ZM47.1505 11.9207C46.7425 11.9207 46.3765 11.8577 46.0525 11.7317C45.7285 11.5997 45.4765 11.4227 45.2965 11.2007C45.1225 10.9727 45.0355 10.7237 45.0355 10.4537C45.0355 10.1838 45.1225 9.93775 45.2965 9.71575C45.4765 9.48775 45.7285 9.31075 46.0525 9.18475C46.3765 9.05275 46.7425 8.98675 47.1505 8.98675C47.5585 8.98675 47.9245 9.05275 48.2485 9.18475C48.5725 9.31075 48.8215 9.48775 48.9955 9.71575C49.1755 9.93775 49.2655 10.1838 49.2655 10.4537C49.2655 10.7237 49.1755 10.9727 48.9955 11.2007C48.8215 11.4227 48.5725 11.5997 48.2485 11.7317C47.9245 11.8577 47.5585 11.9207 47.1505 11.9207ZM50.0845 7.21375H51.1105V9.17575H52.1995V10.1117H51.1105V12.0647H50.0845V7.21375ZM44.6845 7.85275H46.6375V7.08775H47.6635V7.85275H49.5985V8.73475H44.6845V7.85275ZM50.0665 14.3147V13.2797H46.9705V14.3147H50.0665ZM47.1505 9.83275C46.8145 9.83275 46.5505 9.88975 46.3585 10.0037C46.1725 10.1117 46.0795 10.2617 46.0795 10.4537C46.0795 10.6457 46.1725 10.7987 46.3585 10.9127C46.5505 11.0207 46.8145 11.0747 47.1505 11.0747C47.4865 11.0747 47.7475 11.0207 47.9335 10.9127C48.1255 10.7987 48.2215 10.6457 48.2215 10.4537C48.2215 10.2617 48.1255 10.1117 47.9335 10.0037C47.7475 9.88975 47.4865 9.83275 47.1505 9.83275ZM54.5388 13.7207C55.0248 13.0247 55.3728 12.2897 55.5828 11.5157C55.7988 10.7357 55.9158 9.86875 55.9338 8.91475H55.0968V8.01475H56.9238C56.9238 8.88475 56.8848 9.64975 56.8068 10.3097H57.5268V7.34875H58.4988V14.8907H57.5268V11.2457H56.6538C56.5458 11.7797 56.3928 12.2837 56.1948 12.7577C55.9968 13.2317 55.7418 13.7057 55.4298 14.1797L54.5388 13.7207ZM58.9398 7.21375H59.9298V15.2688H58.9398V7.21375ZM52.5498 13.1987C53.0178 12.5868 53.3538 11.9297 53.5578 11.2277C53.7678 10.5257 53.8908 9.75475 53.9268 8.91475H53.0808V8.01475H54.8988C54.8928 9.29875 54.7788 10.3667 54.5568 11.2187C54.3408 12.0707 53.9628 12.8837 53.4228 13.6577L52.5498 13.1987ZM65.628 13.8287C65.232 13.8287 64.875 13.7117 64.557 13.4777C64.245 13.2437 63.996 12.8987 63.81 12.4427C63.63 11.9807 63.54 11.4227 63.54 10.7687C63.54 10.1147 63.63 9.55975 63.81 9.10375C63.996 8.64175 64.245 8.29375 64.557 8.05975C64.875 7.82575 65.232 7.70875 65.628 7.70875C66 7.70875 66.336 7.81075 66.636 8.01475C66.936 8.21875 67.179 8.51575 67.365 8.90575H68.994V7.21375H70.02V15.2688H68.994V12.6767H67.338C67.158 13.0547 66.918 13.3427 66.618 13.5407C66.318 13.7327 65.988 13.8287 65.628 13.8287ZM65.628 8.62675C65.316 8.62675 65.061 8.80975 64.863 9.17575C64.665 9.54175 64.566 10.0727 64.566 10.7687C64.566 11.4647 64.665 11.9957 64.863 12.3617C65.061 12.7277 65.316 12.9107 65.628 12.9107C65.94 12.9107 66.195 12.7277 66.393 12.3617C66.591 11.9957 66.69 11.4647 66.69 10.7687C66.69 10.0727 66.591 9.54175 66.393 9.17575C66.195 8.80975 65.94 8.62675 65.628 8.62675ZM67.716 10.7687C67.716 11.0987 67.686 11.4287 67.626 11.7587H68.994V9.82375H67.635C67.689 10.1117 67.716 10.4267 67.716 10.7687ZM71.5313 11.9117V11.0117H79.0553V11.9117H71.5313ZM72.5393 12.5507H73.5833V14.2337H78.3173V15.1338H72.5393V12.5507ZM72.5393 7.29475H73.5653V9.28375H78.1823V10.1837H72.5393V7.29475ZM82.5575 7.97875H86.4725V8.89675H83.5835V12.5057H83.8265C85.1345 12.5057 86.2385 12.4307 87.1385 12.2808V13.1897C86.3165 13.3517 85.2125 13.4327 83.8265 13.4327H82.5575V7.97875ZM87.7235 9.99475V7.21375H88.7495V15.2688H87.7235V10.9307H85.7075V9.99475H87.7235ZM97.9037 7.21375H98.9297V9.94075H100.109V10.8947H98.9297V15.2688H97.9037V7.21375ZM93.9797 7.84375V12.4607H94.2317C95.5397 12.4607 96.6437 12.3857 97.5437 12.2357V13.1447C96.7217 13.3067 95.6177 13.3877 94.2317 13.3877H92.9537V7.84375H93.9797ZM100.711 12.1097V11.2097H108.235V12.1097H100.711ZM101.719 12.6767H102.763V14.2337H107.497V15.1338H101.719V12.6767ZM104.473 10.6337C103.873 10.6337 103.354 10.5617 102.916 10.4177C102.484 10.2677 102.154 10.0607 101.926 9.79675C101.698 9.52675 101.584 9.22075 101.584 8.87875C101.584 8.53675 101.698 8.23375 101.926 7.96975C102.154 7.69975 102.484 7.49275 102.916 7.34875C103.354 7.19875 103.873 7.12375 104.473 7.12375C105.073 7.12375 105.589 7.19875 106.021 7.34875C106.459 7.49275 106.792 7.69975 107.02 7.96975C107.248 8.23375 107.362 8.53675 107.362 8.87875C107.362 9.22075 107.248 9.52675 107.02 9.79675C106.792 10.0607 106.459 10.2677 106.021 10.4177C105.589 10.5617 105.073 10.6337 104.473 10.6337ZM104.473 9.73375C105.061 9.73375 105.511 9.66175 105.823 9.51775C106.141 9.36775 106.3 9.15475 106.3 8.87875C106.3 8.60275 106.141 8.39275 105.823 8.24875C105.511 8.09875 105.061 8.02375 104.473 8.02375C103.885 8.02375 103.432 8.09875 103.114 8.24875C102.802 8.39275 102.646 8.60275 102.646 8.87875C102.646 9.15475 102.802 9.36775 103.114 9.51775C103.432 9.66175 103.885 9.73375 104.473 9.73375ZM112.727 8.89675V12.5147H114.527V8.89675H112.727ZM116.903 7.21375H117.929V15.2688H116.903V7.21375ZM111.701 7.97875H115.553V13.4327H111.701V7.97875ZM123.653 7.34875H124.643V10.1567H125.417V7.21375H126.425V15.2688H125.417V11.1287H124.643V14.8907H123.653V7.34875ZM121.943 8.83375H119.945V7.92475H122.933V11.1107H120.935V12.6137H121.25C122.102 12.6137 122.798 12.5717 123.338 12.4877V13.3877C122.78 13.4837 122.084 13.5317 121.25 13.5317H119.945V10.2107H121.943V8.83375Z" fill="#1F3A31"/>
<path d="M43.344 46.8897V43.6257H70.096V46.8897H43.344ZM45.648 34.9217H49.84L49.616 26.7617H46.288V23.5297H67.152V26.7617H63.824L63.6 34.9217H67.792V38.1858H45.648V34.9217ZM53.264 26.7617L53.456 34.9217H59.984L60.176 26.7617H53.264ZM87.7575 21.8337H91.2775V28.3297H94.0295V21.3537H97.6135V43.2737H94.0295V31.7217H91.2775V42.6337H87.7575V21.8337ZM86.6375 37.6737C84.7815 38.0151 82.3815 38.1858 79.4375 38.1858H74.3815V28.6817H81.6775V25.6737H74.3815V22.5057H85.1975V31.7857H77.9015V34.9857H79.4375C82.3175 34.9857 84.7175 34.8364 86.6375 34.5377V37.6737ZM78.4135 40.4897H82.1255V46.3457H98.2535V49.5138H78.4135V40.4897ZM104.267 24.0737H118.187V27.3377H107.915V40.1697H108.779C113.43 40.1697 117.355 39.9031 120.555 39.3698V42.6017C117.632 43.1777 113.707 43.4657 108.779 43.4657H104.267V24.0737ZM122.635 31.2417V21.3537H126.283V49.9938H122.635V34.5697H115.467V31.2417H122.635Z" fill="#1F3A31"/>
<defs>
<filter id="filter0_d_772_1490" x="0" y="0.5" width="34" height="53" filterUnits="userSpaceOnUse" color-interpolation-filters="sRGB">
<feFlood flood-opacity="0" result="BackgroundImageFix"/>
<feColorMatrix in="SourceAlpha" type="matrix" values="0 0 0 0 0 0 0 0 0 0 0 0 0 0 0 0 0 0 127 0" result="hardAlpha"/>
<feOffset/>
<feGaussianBlur stdDeviation="1"/>
<feComposite in2="hardAlpha" operator="out"/>
<feColorMatrix type="matrix" values="0 0 0 0 0 0 0 0 0 0 0 0 0 0 0 0 0 0 0.1 0"/>
<feBlend mode="normal" in2="BackgroundImageFix" result="effect1_dropShadow_772_1490"/>
<feBlend mode="normal" in="SourceGraphic" in2="effect1_dropShadow_772_1490" result="shape"/>
</filter>
</defs>
</svg>
